<svg id="logo" xmlns="http://www.w3.org/2000/svg" viewBox="0 0 2210.14 1112.03"><title>rise-svg_simplified</title><path id="house" d="M2298.27,563.39L934.13,103.21a5.08,5.08,0,0,0-4.1.37L101.46,564.37l-5.77,3.21a1.48,1.48,0,0,0-.76,1.3V1215H2305.07V572.87A10,10,0,0,0,2298.27,563.39ZM1676.42,446.82V1130a5,5,0,0,1-5,5h-410a5,5,0,0,1-5-5V312a5,5,0,0,1,6.62-4.73l410,134.86A5,5,0,0,1,1676.42,446.82ZM934.13,194.21L1140,264.95a5,5,0,0,1,3.38,4.73V1130a5,5,0,0,1-5,5H704.5a5,5,0,0,1-5-5V326.7a5,5,0,0,1,2.56-4.36L930,194.58A5.08,5.08,0,0,1,934.13,194.21ZM178,622.4v-5.53a1.48,1.48,0,0,1,.76-1.3l5.77-3.21L579,391.3a5,5,0,0,1,7.44,4.36V1130a5,5,0,0,1-5,5H183a5,5,0,0,1-5-5V622.4ZM2217.07,1135H1794.46a5,5,0,0,1-5-5V489.1a5,5,0,0,1,6.62-4.73l419.18,135a10,10,0,0,1,6.8,9.48V1130A5,5,0,0,1,2217.07,1135Z" transform="translate(-94.93 -102.94)"/><path id="E" d="M2165.63,946.23H1943.35c1.3,6.48,2.06,12.17,3.6,17.59,8.64,30.47,29.23,47.83,58.34,49.51,13.84,0.8,27.5.88,40.8-4.87,14.34-6.2,25.22-16.67,33.71-30.4a180.59,180.59,0,0,0,8.79-16.48c1.8-3.74,3.5-5.08,7.39-2.74,21.07,12.72,42.27,25.18,63.43,37.72,2.91,1.72,3.41,3.91,1.78,7.14-11.23,22.2-24.87,42.33-42.87,58.47a149.82,149.82,0,0,1-62.82,34.15c-23.74,6.19-47.65,7-71.83,3.7-19.19-2.59-37.45-8.27-54.42-18.37-28.41-16.91-49.12-41.78-62.73-73.89-10.11-23.86-14.65-49-15.23-75.18-0.53-23.87,1-47.41,7.86-70.22,6.8-22.56,17-43,31.73-60.64s31.34-32.63,51.56-42.21a149.1,149.1,0,0,1,62-14.42c21.43-.38,42.62,1,63.05,8.56,47.51,17.46,78.12,52.57,91.49,105.73,6.86,27.25,7.5,55,7.15,83C2166.09,943.45,2165.85,944.5,2165.63,946.23Zm-93.56-74.29c-3.38-14.81-11.13-25.32-22.79-32-15.75-9-32.83-9.49-50.11-7.89-14.49,1.34-27.06,7.17-36.87,19.08-4.82,5.85-9.19,12.2-10.66,20.77h120.44Z" transform="translate(-94.93 -102.94)"/><path id="S" d="M1466.34,1100.48c-26.78.93-54.63-3.73-78.63-15.51-26.49-13-45.31-34.06-58.18-60.5a21.11,21.11,0,0,0-.86-2c-4.5-7.18-3.51-9,4.5-13.6,12-6.89,24.3-13.33,36.46-20,11-6,22.15-12,33.09-18.18,4-2.25,5.95-1.51,7.08,2.87,1.37,5.3,2.6,10.7,4.67,15.73,7.73,18.72,21.58,29.53,42.09,30.66a166.48,166.48,0,0,0,26.28-.14c12.74-1.33,24.22-10.1,23.59-25.89-0.35-8.68-5.52-14.21-12.22-17.61-13.12-6.65-26.67-12.5-40.3-18.08-26.56-10.87-53-22-75.49-40.29-21.07-17.1-32.68-39.18-33.27-66.86-0.43-20,3.21-38.81,14.71-55.17,13.11-18.67,30-33.18,51.42-42.17,29.17-12.22,59.71-12.77,90.11-9.62,27.46,2.84,52.48,13.6,70.88,35.34,6.86,8.1,11.52,18.06,17.18,27.17,1.7,2.75.8,4.71-1.72,6.44q-29.6,20.29-59.14,40.67l-0.91.61c-9.54,6.27-10,6.11-13.54-4.59-5.48-16.67-17.72-26.39-35.35-26.74-8.08-.16-16.91-0.13-24.16,2.85-15.75,6.48-16.78,23.75-2.13,32.44,10.76,6.38,22.36,11.5,34,16.23,25.14,10.25,51.14,18.62,73.53,34.66,20.74,14.86,37,33.56,40.67,59.41,5.13,36.47-.77,70.52-29.57,97-17.67,16.26-38.79,26-62.17,30.39C1508.94,1096,1481.68,1100.48,1466.34,1100.48Z" transform="translate(-94.93 -102.94)"/><circle id="Idot" cx="837.07" cy="513.43" r="72.5"/><rect id="I" x="772.25" y="638.89" width="129.63" height="360.1" rx="7.5" ry="7.5"/><path id="R" d="M268.38,1101.92h87.71a7.5,7.5,0,0,0,7.5-7.5l0-146.84c-0.07-25.91.73-51.72,7.4-76.93,5-19,13.65-35,35.49-38.61,15.1-2.49,30-2.61,43.68,5.7,5.27,3.2,10.4,6.65,15.35,10.31,3.63,2.69,5.81,1.13,7.37-2s2.63-6.82,4.11-10.16q15.1-34,30.28-67.94c1.37-3.07,1.1-5-2.47-6.86-25.4-13.22-51.73-20.37-80.71-15.32-18.63,3.24-35.66,9.2-49.68,22.45-2.69,2.55-6.28,7.62-10.78,10.5,0-6.46,0-14.93,0-19.92,0-8.29-1.6-9.91-9.77-9.91q-41.47,0-82.93,0c-8.78,0-10,1.23-10,10.05v335.47A7.5,7.5,0,0,0,268.38,1101.92Z" transform="translate(-94.93 -102.94)"/></svg>